<?xml version="1.0" encoding="utf-8"?>
<!-- Generator: Adobe Illustrator 26.5.0, SVG Export Plug-In . SVG Version: 6.00 Build 0)  -->
<svg version="1.1" id="Calque_1" xmlns="http://www.w3.org/2000/svg" xmlns:xlink="http://www.w3.org/1999/xlink" x="0px" y="0px"
	 viewBox="0 0 1080 773.8" style="enable-background:new 0 0 1080 773.8;" xml:space="preserve">
<style type="text/css">
	.st0{fill:#FFFFFF;}
</style>
<g>
	<path class="st0" d="M122.6,446c-1.2,1.2-2.4,2.4-3.5,3.6c-26.1,26.9-39.1,58.5-34.9,96.5c2.6,23.3,16.9,39.4,39.8,43.6
		c16.8,3,32.9,0.3,48.3-7c14.9-7,27.6-17,39.1-28.5c10.9-10.9,21.5-22,32-33.1c12.5-13.2,28.2-21.2,45.1-27.2c1-0.4,2.1-0.4,3.6-0.6
		c0,2.1,0.1,3.8,0,5.4c-0.5,8.9-3.3,17.2-6.7,25.3c-5.5,13.1-12.9,25.2-20.9,37c-12.3,18.2-26.2,35.2-40.7,51.7
		c-5.1,5.8-7.5,12.2-8.1,19.7c-1.3,15.7-7.1,29.8-16.7,42.3c-6.5,8.5-14.9,14.2-25.5,16.2c-7.4,1.4-15.1,1.7-22.6,3.1
		c-7.4,1.3-15,2.7-22.1,5.3c-10.5,3.9-13.8,14.5-8.1,24.2c1.5,2.6,3.6,4.9,5.8,7c4.6,4.4,10.2,7.2,16.2,9.1
		c11.8,3.9,23.9,4.1,36,1.8c14.2-2.7,27-8.5,37.4-18.8c12.4-12.3,24.2-25,31.5-41.2c0.4-0.9,1.1-1.7,1.5-2.6
		c6.7-13.2,16.9-22.5,30.4-28.4c11.3-4.9,22.4-10.2,33.6-15.3c18.3-8.2,34.7-19.1,47.2-34.9c7.3-9.2,13.9-19.1,20.2-29.1
		c7.8-12.2,15.1-24.8,22.6-37.2c4.8-8.1,11.4-14.6,18.4-20.8c0.7-0.6,1.5-1,2.5-1.7c0,0.8,0.1,1.1,0,1.3
		c-10.1,16.5-20.3,33.1-30.5,49.6c-8.5,14-17.2,27.8-27.5,40.7c-8.5,10.6-17.7,20.4-29.4,27.6c-0.4,0.2-0.6,0.7-1.4,1.7
		c1.9-0.4,3.2-0.6,4.4-1c15.3-4.7,28.4-13.2,39.8-24.3c12.7-12.3,22.7-26.8,31.5-42c7-12.1,13.4-24.6,20.4-36.7
		c5-8.8,10.6-17.2,15.9-25.8c5-8.2,12.5-12.5,21.8-14c2.5-0.4,5-1,7.5-1.2c23.9-2.4,47.7-4.9,71.6-6.9c30.9-2.6,61.9-4.7,92.9-7.2
		c24.5-2,48.4-6.8,71.8-14.4c31.3-10.1,60.5-24,84.6-47.2c1.4-1.4,3.1-2.5,4.8-3.7c3.5-2.3,7-2.2,10.4,0.2c1.1,0.8,2.2,1.6,3.2,2.5
		c6.5,5.5,13.8,9.7,21.6,13c13.3,5.6,27.3,8.7,41.5,10.9c3.2,0.5,6.4,1.1,10,1.6c-3,6.8-5.7,13-5.4,19.9c0.3,7.2,3.3,13.2,9.3,18.6
		c0.4-2.7,0.6-4.7,1.1-6.6c2.2-8.3,7.7-13.7,15.3-17.2c9.7-4.5,19.9-4.8,30.2-2.8c7.7,1.5,15.1,3.9,21.3,8.9
		c8.3,6.7,11.9,15.3,10.2,25.9c-0.2,1.4-0.4,2.9-0.6,4.9c3-1.2,5.2-2.6,6.4-4.8c1.9-3.5,4.1-7.1,5-10.9c3.2-14.6-1.5-27-12.1-37.2
		c-6.6-6.3-14.7-10.1-23.4-12.5c-12.5-3.6-25.3-4.1-38.2-3.1c-8.1,0.6-15.8-0.8-23.3-3.7c-20.5-8-39-19.3-55.2-34.1
		c-4.1-3.7-8-7.9-11.1-12.4c-11.4-16.3-27.4-23.5-46.7-24.3c-6.9-0.3-13.8,0.7-20.6,3.9c1.5,1.3,2.9,2.3,4,3.5
		c3.4,3.5,7,6.9,9.8,10.8c6.4,9,7.5,19,3.9,29.4c-2.3,6.6-6.1,12.5-11,17.5c-7.6,7.8-16.2,14.3-25.8,19.4
		c-18,9.5-37.3,14.8-57.5,16.4c-12.6,1-25.3,1.4-37.9,1.6c-32.8,0.4-65.5,0.5-98.3,0.6c-16.6,0-33.1,0.6-49.5,2.9
		c-20.5,2.9-40.3,8.3-58.7,18.1c-24.3,13-44.1,30.4-55.3,56.3c-1.7,3.9-3.9,7.5-6.3,11c-14.1,20.9-30.8,39.3-50.6,54.9
		c-11.5,9-23.9,16.4-37.9,21c-2.1,0.7-4.4,1-7.6,1.8c1.5-2.7,2.4-4.3,3.4-5.9c11.2-18.5,21.6-37.4,30.6-57.1
		c6.6-14.4,12.6-29.1,16.2-44.7c1.9-8.3,3.1-16.6,1.6-25.1c-1.7-9.3-7.5-15.1-16.9-16.3c-3.5-0.5-7.1-0.4-10.6-0.2
		c-3.1,0.1-6.2,0.7-9.2,1.1c-0.2-0.3-0.4-0.6-0.6-0.9c4.4-3.9,8.4-8.2,13.1-11.6c12.5-9.2,25.1-18.3,37.9-27.1
		c12.8-8.8,26.4-16.4,40.6-22.7c25.2-11.2,51.4-17.3,79.1-16.8c25.8,0.5,49.7-6.2,71.9-19.2c1.1-0.6,2-1.5,3.9-2.9
		c-2,0.2-3,0.2-4,0.4c-22.9,4.5-46.1,6.9-69.4,7.4c-47.1,1-92.8-6.5-137.1-22.5c-34.2-12.4-66-29.2-96.1-49.4
		c-1.4-0.9-2.9-1.8-4.3-2.7c3.4,9.6,8.2,18.1,13.7,26.2c11.6,16.9,26.5,29.6,45.7,37c6.9,2.7,13.8,5.5,20.9,7.7
		c22.4,6.9,44.9,13.5,67.3,20.3c1.7,0.5,3.3,1.1,5.6,1.8c-4.2,3.6-7.8,6.2-12.1,7.8c-30.3,11.4-56.9,28.8-79.6,51.8
		c-17.9,18.1-34.8,37.2-49.3,58.3c-7.9,11.6-16.5,22.7-25.4,33.5c-13.7,16.7-30.7,28.7-51.7,34.8c-10.9,3.2-21.8,4.4-32.9,1.4
		c-14.2-3.9-28.6-14.3-30.9-34.8c-1.3-11.5,0.1-22.6,3.3-33.5c2.6-8.8,6.5-17,13.2-23.6c13.4-13.4,29.4-18.5,48.1-15.1
		c7.7,1.4,15.5,1.3,23.2-0.4c12-2.7,22.5-8.1,30.1-18.2c1.2-1.7,2.2-3.6,3.4-5.6c-2-0.4-3.3-0.8-4.7-1c-12.3-1.3-23.5-5.9-34-12.2
		c-1.7-1-3.6-1.8-5.5-2.6c-11.2-4.9-22.2-4.8-32.9,1.6"/>
	<path class="st0" d="M25.9,30.9c5.2,0.3,9.9,0.4,14.5,0.7c13.8,0.9,27.6,1.9,41.4,2.6c19.6,1.1,39,3.7,58.3,6.7
		c28.8,4.5,57.7,9.1,86.5,13.8c27.3,4.4,54.6,9,81.9,13.7c11.8,2,23.6,4.1,35.3,6.6c6.7,1.5,13.3,3.7,19.9,5.7
		c26.2,7.7,43.8,24.5,53,50.1c3.1,8.7,5.8,17.6,9.1,26.3c11,28.9,26.5,55.1,48.8,76.7c26.7,25.8,58.2,42.5,95,48.5
		c11.1,1.8,22.5,2.4,33.7,3.5c4.8,0.5,9.7,0.9,14.8,2.1c-1.2,0.6-2.4,1.3-3.7,1.8c-20.7,7.2-42,10-63.8,8.9
		c-26.8-1.3-52.3-8-76-20.8c-28-15.2-49.8-36.8-65.9-64.2c-10.5-17.8-19.9-36-26.7-55.6c-6-17.1-17.7-28-35.6-32.8
		c-41.5-11.3-82.9-22.9-124.9-32.3c-27-6.1-54.3-10.5-81.8-13.9C118.8,76.3,97.9,74,77,70.8c-22.7-3.5-39.2-16.3-49.8-36.6
		C26.8,33.2,26.5,32.3,25.9,30.9z"/>
	<path class="st0" d="M813.6,312.5c-0.5-5.7-0.5-10.8-1.3-15.7c-1.7-9.5-6.5-17.7-12.7-25c-6.7-7.9-14.6-14.6-23.2-20.3
		c-10.1-6.7-20.5-13-30.8-19.5c-9.3-5.8-18.8-11.4-26.6-20c-2,3.8-3.8,7.3-5.8,11.3c-6.2-8.1-8.4-16.7-7.3-26.2
		c1.1-9.7,5.3-18,12.1-25.1c10-10.3,19.1-21.4,26.9-33.6c0.4-0.7,0.8-1.4,1.6-2.7c-15.1-2.3-29.9-3.1-44.6-4.4c0-0.3-0.2-0.8,0-0.9
		c9.6-5.3,19.3-10.7,30.2-12.5c5.2-0.9,10.8-0.8,16.1-0.1c8.5,1.2,8.4,1.6,17.1-2.3c-3.5-4-7.5-6.8-12.3-8.3
		c-9.7-3-19.7-4.7-29.9-5.1c-24.3-0.8-46.8,5.8-68,17c-9.7,5.1-19.2,10.7-28.2,16.9c-17.1,11.9-36,15.6-56.3,14
		c-6.3-0.5-12.6-1.8-19.3-2.9c0.9,1,1.7,1.9,2.6,2.7c8,6.6,17.4,10.2,27.2,13c7.9,2.2,16,4.1,24,6.3c3.1,0.9,6.6,1.5,8.4,5.2
		c-9.7,7.5-11.6,18.2-12.3,29.4c-0.6,10.2,0.4,20.2,2.9,30.1c0.3,1.3,0.6,2.6,0.1,4.2c-1.8-2.8-3.6-5.5-5.3-8.3
		c-4.1-6.8-7.5-14-9-21.9c-1.8-8.7-0.3-16.8,4.5-24.2c0.4-0.6,0.7-1.1,1-1.7c0.1-0.1,0.1-0.3,0.2-0.8c-1.4-0.4-2.8-0.9-4.2-1.2
		c-10.8-2.9-21.2-6.7-30.9-12.4c-6-3.5-11.5-7.7-16-13.1c-3.6-4.3-6.3-9.2-7.6-14.7c-0.4-1.6-0.4-3.2-0.6-4.6
		c10.5,1.3,20.5,2.7,30.5,3.7c11.3,1.1,22.6,0.4,33.7-2.3c7.3-1.8,13.9-5,19.9-9.6c19.8-15.4,41.5-27,66.2-32.6
		c20.2-4.5,40.5-5.6,60.6,0.4c5.1,1.5,10.1,3.8,14.9,6.1c6.3,3.1,11.5,7.7,14.7,14.1c0.4,0.7,0.9,1.4,1.3,2.2
		c4.1,8.1,10.1,13.5,19.3,15.7c7.2,1.7,13.4,5.6,18.6,10.8c6.2,6.2,7.6,12.4,4.5,19.8c-0.2,0.4-0.6,0.8-1.1,1.4
		c-15.1-11.3-32-14.4-50.3-11.1c-9.3,1.7-16.8,6.1-21.2,12c1.9,3.8,4.8,6.7,8.5,8.9c8.3,5,17.3,7.8,26.8,8.2
		c8.7,0.4,17.5,0.1,27.2,0.1c-1,1.5-1.4,2.6-2.2,3.2c-5.9,5.4-12.6,8.8-20.8,9.3c-11.5,0.7-22.6-0.2-33.3-4.6
		c-4.3-1.8-8.4-4.2-13-6.6c-0.4,4,0.4,7.7,2.4,10.9c2.3,3.5,4.8,6.9,7.9,9.8c10,9.5,21.4,17,33.1,24.1c10.7,6.6,20.5,14.3,28.3,24.3
		c6.4,8.1,11.1,16.9,12.7,27.2c1.7,11.2-1.4,21.1-9.4,29.3C815.4,311.1,814.6,311.6,813.6,312.5z"/>
	<path class="st0" d="M18.5,104.5c7.8-1.3,15.7-1.9,23.6-1c29.3,3.3,58.7,6.6,88,10.1c28.1,3.4,56.3,7.1,83.9,13.4
		c45.8,10.5,83.3,34.8,113.5,70.6c8.1,9.5,15.4,19.6,21.5,30.8c-0.7-0.5-1.5-0.9-2.1-1.5c-38-31.7-81.8-51.9-129.2-64.8
		c-27.9-7.6-56.2-12.8-84.9-16.3c-22.3-2.8-44.5-5.3-66.8-8.1c-4.5-0.6-9-1.3-13.4-2.4c-16.2-4.2-26.7-15-34-29.5
		C18.4,105.5,18.5,105.1,18.5,104.5z"/>
	<path class="st0" d="M437,323.4c-13.7,2.2-27.5,2.4-41.2,1.3c-36.2-2.8-68.9-15.3-98.7-35.8c-11.5-7.9-23.1-15.9-34.1-24.6
		c-26-20.5-55.2-32.8-88.1-36.6c-17.4-2-32.9-8.9-45.8-20.7c-6.7-6.1-12.4-13.3-18.6-20c-0.5-0.6-0.8-1.4-1.6-2.6
		c4.1,0.4,7.6,0.7,11,1.1c23.3,2.8,46.5,6.3,69.2,12c33.5,8.4,65.1,21.2,92.9,42.1c7.4,5.5,14.5,11.6,21.4,17.8
		c18.6,16.8,38.2,32.1,60.4,44c21.5,11.4,44.4,18.7,68.6,21.4C434.1,323,435.6,323.2,437,323.4z"/>
	<path class="st0" d="M1044.3,324.7c-0.6-1-1.1-2-1.7-3c-6.1-9.9-15.3-14.2-26.5-13.3c-13.7,1.1-25.6,7-35.5,16.6
		c-3.9,3.8-7,8.2-8.7,13.5c-2.3,6.8-1.9,13.3,2.1,19.4c0.5,0.8,1,1.7,1.9,3.2c-17.1-1.3-23.9-12.3-27.4-26.8c-2,1-3.7,1.7-5.3,2.5
		c-6.7,3.6-13.5,6.9-19.9,11c-14.5,9.1-30.4,14.5-47.2,17.3c-11.3,1.9-22.8,3-34.2,0.7c-2.9-0.6-5.9-1.8-8.3-3.4
		c-4.4-3-5.1-8-1.3-11.7c2.9-2.9,6.5-5.6,10.3-7c8.2-2.9,16.7-5.4,25.2-7.2c16.7-3.4,33.5-6.1,50.2-9.3c5.1-1,10.1-2.5,15.1-4
		c6.9-2.1,12.9-5.4,18.3-10.4c8.7-8.1,18.5-14.7,29.3-19.6c11.4-5.1,23.3-8,35.9-5.5c11.2,2.3,20.4,7.8,26.5,17.8
		c2.4,3.9,4,8.2,3.7,12.9c-0.1,2.1-0.9,4.1-1.3,6.2C1045.1,324.6,1044.7,324.7,1044.3,324.7z"/>
	<path class="st0" d="M315.2,642.1c0,0.4,0.1,1-0.1,1.4c-6.6,14.5-14.3,28.3-25.7,39.6c-8.5,8.5-18.3,15-30.5,16.5
		c-3.9,0.5-8,0-12.6,0c0.8-2,1.1-3.3,1.7-4.4c4.4-7.4,8.5-15,13.3-22c2.5-3.7,6-7,9.7-9.4c13.7-9.1,28.7-15.4,43.8-21.8
		C314.8,641.9,315,642,315.2,642.1z"/>
	<path class="st0" d="M957.3,412.3c25.5-12.3,49.9,4.6,48.7,33.9c-0.9-2-1.5-3-1.9-4.2c-2.8-8.1-8.3-13.3-16.7-15.4
		c-4.1-1-8.2-2-12.2-3.1c-5.9-1.6-11.3-4.3-15.8-8.6C958.7,414.2,958.2,413.4,957.3,412.3z"/>
	<path class="st0" d="M1010.5,274.1c23.8-13.3,49.3,0.6,51.1,28.3c-0.9-1.2-1.5-1.8-1.8-2.6c-3.5-8.3-10-12.8-18.8-14.3
		c-5.2-0.8-10.3-1.7-15.4-3C1020,281.2,1014.9,278.7,1010.5,274.1z"/>
	<path class="st0" d="M578,102.8c12.4,10.7,25.9,17.3,42.8,19c-2.9,2.2-4.7,4.2-7,5.2c-1.6,0.7-3.9,0.6-5.7,0.1
		c-8.6-2.3-16.9-5.4-24.9-10.9c0.5,7.5,4.3,12.7,8.4,17.7c-0.3,0.4-0.5,0.7-0.7,0.8c-9.4,1.5-10.5,0.9-13.2-8.2
		C575.6,118.8,575.4,111.2,578,102.8z"/>
</g>
</svg>
