<?xml version="1.0" encoding="utf-8"?>
<!-- Generator: Adobe Illustrator 26.5.0, SVG Export Plug-In . SVG Version: 6.00 Build 0)  -->
<svg version="1.1" id="Calque_1" xmlns="http://www.w3.org/2000/svg" xmlns:xlink="http://www.w3.org/1999/xlink" x="0px" y="0px"
	 viewBox="0 0 1080 946.76" style="enable-background:new 0 0 1080 946.76;" xml:space="preserve">
<style type="text/css">
	.st0{fill:#FFFFFF;}
</style>
<g>
	<path class="st0" d="M610.84,681.43c0.76-1.06,1.54-2.12,2.29-3.19c37.18-52.85,77.34-103.29,121.59-150.43
		c16.26-17.33,33.12-34.06,50.31-50.47c6.54-6.25,12.51-13.1,18.84-19.58c7.88-8.07,15.99-15.88,24.97-22.76
		c4.67-3.57,9.77-5.98,15.67-6.56c4.66-0.46,9.1-0.02,12.6,3.55c0.98,1,1.74,2.23,2.65,3.42c2.11-1.38,4.04-2.87,6.17-3.97
		c2.23-1.16,4.59-2.22,7.01-2.83c3.58-0.9,6.42,0.62,7.68,4.07c0.79,2.14,1.01,4.5,1.39,6.77c0.14,0.84,0.02,1.72,0.02,2.88
		c0.83-0.2,1.36-0.23,1.8-0.44c6.1-3.02,12.47-3.22,19.08-2.18c3.46,0.54,7.02,0.56,10.53,0.55c3.47-0.01,6.46-1.54,8.84-4
		c2.83-2.94,5.53-6.01,8.16-9.13c2.99-3.55,5.71-7.32,8.78-10.79c1.89-2.13,4.03-4.13,6.38-5.73c3.54-2.41,6.81-1.73,9.11,1.9
		c1.69,2.68,2.85,5.69,4.42,8.89c1.23-0.58,2.66-1.3,4.12-1.95c4.42-1.96,8.96-3.32,13.8-1.78c1.88,0.6,3.7,1.46,5.45,2.38
		c2.54,1.34,4.98,1.38,7.62,0.25c3.92-1.69,7.31-4.12,10.3-7.11c2.73-2.74,5.25-5.68,8.02-8.38c2.44-2.38,4.92-4.81,7.7-6.75
		c5.04-3.53,10.55-3.54,16.07-1.06c3.75,1.69,5.37,4.83,4.79,8.87c-0.52,3.65-2.35,6.64-4.77,9.29c-4.8,5.24-10.86,8.21-17.71,9.72
		c-1.38,0.3-2.77,0.54-4.71,0.91c5.85,2.34,11.41,2.73,17.05,2.63c8.58-0.15,16.82-2.3,25.05-4.43c2.23-0.58,4.45-1.18,6.88-1.41
		c-0.25,0.2-0.48,0.46-0.76,0.59c-9.21,4.28-18.38,8.63-27.65,12.79c-6.55,2.94-13.27,5.53-20.45,6.49
		c-2.39,0.32-4.87,0.42-7.26,0.13c-6.09-0.74-10.14-4.27-11.88-10.08c-0.69-2.3-1.98-3.13-4.07-3.61c-5.6-1.3-11.04-0.77-16.15,1.73
		c-3.56,1.74-6.87,3.97-10.33,5.93c-2.39,1.36-4.74,2.88-7.28,3.88c-4.02,1.58-6.57,0.41-8.27-3.53c-0.77-1.79-1.23-3.72-1.93-5.86
		c-0.71,0.65-1.37,1.18-1.93,1.79c-4.17,4.57-8.42,9.08-12.45,13.76c-5.64,6.55-12.36,9.3-20.96,6.9c-3.18-0.88-6.51-1.19-9.76-1.85
		c-2.45-0.49-4.8-0.38-7.13,0.62c-4.26,1.83-8.52,3.67-12.83,5.37c-1.94,0.76-3.97,1.45-6.01,1.73c-3.65,0.5-5.34-0.79-6.16-4.39
		c-0.31-1.38-0.38-2.84-0.45-4.26c-0.07-1.41-0.02-2.82-0.02-5.04c-1.22,1.34-2.03,2.15-2.76,3.02c-4.37,5.28-8.57,10.7-13.13,15.81
		c-3.15,3.53-6.56,6.89-10.24,9.85c-4.09,3.3-8.93,4.55-14.31,3.77c-3.58-0.52-5.99-2.31-7.21-5.52c-0.97-2.56-1.47-5.29-2.16-7.96
		c-0.21-0.82-0.34-1.67-0.62-3.06c-1.17,0.92-2.04,1.51-2.81,2.22c-2.44,2.25-4.96,4.42-7.22,6.83
		c-8.79,9.37-18.76,17.46-28.27,26.04c-40.92,36.9-77.46,77.8-110.75,121.64c-28.03,36.91-53.44,75.57-76.97,115.48
		c-1.87,3.17-4.91,4.6-8.52,4c-2.14-0.36-3.47-1.56-3.47-3.76c0-1.96,0.3-3.97,0.83-5.86c2.46-8.76,6.41-16.92,10.54-24.99
		c13.25-25.88,28.18-50.8,43.41-75.54c21.25-34.52,42.75-68.89,64.14-103.33c0.69-1.11,1.36-2.22,2.27-3.71
		c-0.71,0.17-1.02,0.16-1.22,0.31c-14.06,10.34-28.08,20.73-42.16,31.05c-24.95,18.29-49.94,36.51-74.88,54.82
		c-1.47,1.08-2.83,2.49-3.84,4.01c-23.78,35.66-47.45,71.4-71.25,107.04c-26.75,40.06-53.7,79.98-82.34,118.73
		c-13.67,18.49-27.69,36.7-43.16,53.73c-6.69,7.37-13.56,14.59-21.53,20.58c-3.51,2.64-7.31,4.98-11.25,6.9
		c-2.28,1.11-5.09,1.48-7.67,1.53c-2.96,0.06-3.46-0.78-4.01-3.75c-1.05-5.64-0.52-11.25,0.38-16.82
		c2.56-15.82,8.11-30.71,14.59-45.26c12.5-28.07,28.53-54.09,46.41-79.01c20.34-28.34,43.01-54.71,67.48-79.55
		c31.4-31.88,65.39-60.74,101.56-87.06c1.59-1.16,3.08-2.52,4.39-3.99c9.59-10.71,18.83-21.72,26.51-33.91
		c3.35-5.31,6.13-10.98,9.12-16.51c0.45-0.83,0.65-1.8,1.17-3.28c-1.33,0.77-2.12,1.27-2.95,1.71c-4.96,2.64-9.86,5.42-14.93,7.84
		c-2.04,0.97-4.43,1.4-6.7,1.61c-2.71,0.25-3.86-0.78-4.34-3.46c-0.33-1.84-0.37-3.73-0.48-5.6c-0.06-1.05-0.01-2.1-0.01-3.73
		c-1.4,1.06-2.36,1.73-3.27,2.47c-10.61,8.51-21.49,16.64-33.43,23.23c-5.42,3-10.97,5.73-17.17,6.74
		c-1.08,0.18-2.19,0.29-3.29,0.29c-2.13,0.01-3.88-0.81-4.98-2.71c-1.32-2.29-2.59-4.6-4.01-7.13c-1.97,1.52-3.91,2.97-5.78,4.5
		c-6.15,5.04-12.21,10.2-18.45,15.14c-2.76,2.18-5.77,4.08-8.84,5.81c-2.52,1.42-5.26,2.22-8.27,1.18c-0.8-0.28-1.92,0.01-2.79,0.32
		c-5.09,1.81-10.13,3.75-15.23,5.54c-1.24,0.43-2.07,0.99-2.61,2.24c-7.79,17.9-19.08,33.57-31.29,48.62
		c-23.07,28.41-49.32,53.67-77.33,77.15c-25.87,21.69-53.2,41.35-82.27,58.53c-20.32,12.01-41.68,21.73-64.54,27.95
		c-15.75,4.29-31.76,6.71-48.12,6.29c-31.94-0.83-59.66-12.05-82.9-34.06c-22.07-20.9-35.14-46.44-39.34-76.55
		c-2.67-19.13-1.66-38.13,1.79-57.05c5.06-27.81,14.81-54.03,27.14-79.35c17.29-35.53,38.96-68.29,63.59-99.1
		c53.96-67.49,117.34-124.48,190.81-170.12c10.03-6.23,20.42-11.89,30.58-17.92c7.05-4.18,14.21-4.25,21.56-1.05
		c1.21,0.53,2.44,1.06,3.57,1.73c6.9,4.12,14.19,7.14,22.27,7.98c0.87,0.09,1.72,0.36,3.06,0.64c-0.81,1.34-1.42,2.58-2.23,3.68
		c-4.94,6.63-11.8,10.17-19.68,11.91c-5.01,1.11-10.09,1.18-15.15,0.26c-12.24-2.21-22.7,1.13-31.49,9.89
		c-4.35,4.34-6.92,9.66-8.63,15.45c-2.11,7.16-2.98,14.42-2.15,21.93c1.48,13.39,10.89,20.2,20.19,22.75
		c7.28,2,14.43,1.16,21.55-0.91c13.72-3.99,24.85-11.9,33.83-22.8c5.82-7.07,11.43-14.36,16.6-21.92
		c9.47-13.83,20.51-26.31,32.25-38.17c14.89-15.03,32.27-26.39,52.11-33.87c2.86-1.08,5.23-2.74,7.95-5.12
		c-1.47-0.47-2.56-0.83-3.65-1.16c-14.69-4.41-29.4-8.75-44.06-13.27c-4.63-1.43-9.14-3.26-13.67-5.02
		c-12.56-4.87-22.35-13.18-29.93-24.22c-3.62-5.28-6.73-10.83-8.96-17.14c0.95,0.58,1.92,1.14,2.84,1.76
		c19.69,13.25,40.52,24.26,62.87,32.35c28.99,10.5,58.91,15.36,89.7,14.73c15.26-0.32,30.41-1.93,45.41-4.85
		c0.63-0.12,1.29-0.14,2.62-0.27c-1.19,0.89-1.81,1.46-2.53,1.88c-14.53,8.51-30.18,12.87-47.07,12.57
		c-18.1-0.32-35.27,3.67-51.74,11c-9.31,4.14-18.18,9.09-26.58,14.84c-8.38,5.74-16.63,11.69-24.79,17.73
		c-3.06,2.27-5.73,5.06-8.58,7.61c0.12,0.19,0.24,0.39,0.36,0.58c2.01-0.26,4.02-0.65,6.04-0.74c2.3-0.11,4.64-0.18,6.92,0.12
		c6.14,0.82,9.91,4.59,11.03,10.67c1.03,5.56,0.19,11.01-1.03,16.42c-2.31,10.18-6.24,19.78-10.58,29.22
		c-5.91,12.86-12.71,25.25-20.03,37.35c-0.61,1.02-1.19,2.06-2.2,3.83c2.12-0.49,3.58-0.71,4.97-1.16
		c9.15-2.97,17.31-7.84,24.81-13.72c12.96-10.17,23.93-22.25,33.14-35.9c1.54-2.28,3.01-4.67,4.09-7.19
		c7.32-16.97,20.32-28.34,36.19-36.86c12.01-6.45,24.97-9.94,38.4-11.85c10.74-1.53,21.56-1.9,32.39-1.93
		c21.44-0.07,42.87-0.14,64.31-0.37c8.28-0.09,16.58-0.37,24.83-1.02c13.23-1.04,25.88-4.51,37.64-10.73
		c6.27-3.32,11.92-7.6,16.88-12.7c3.19-3.28,5.64-7.09,7.17-11.43c2.4-6.83,1.64-13.34-2.53-19.24c-1.83-2.58-4.24-4.76-6.44-7.08
		c-0.73-0.77-1.61-1.41-2.62-2.28c4.47-2.1,8.95-2.73,13.47-2.54c12.6,0.53,23.08,5.22,30.53,15.88c2.07,2.96,4.6,5.68,7.28,8.13
		c10.63,9.71,22.73,17.11,36.15,22.33c4.91,1.91,9.9,2.83,15.22,2.41c8.41-0.66,16.78-0.31,24.97,2.02
		c5.7,1.62,11.01,4.06,15.33,8.21c6.95,6.67,10.01,14.76,7.91,24.32c-0.55,2.51-2,4.85-3.26,7.15c-0.79,1.44-2.23,2.34-4.18,3.14
		c0.16-1.36,0.25-2.3,0.4-3.23c1.13-6.98-1.22-12.6-6.67-16.96c-4.08-3.25-8.9-4.83-13.93-5.81c-6.77-1.32-13.43-1.08-19.79,1.84
		c-4.95,2.27-8.56,5.83-9.98,11.25c-0.32,1.23-0.42,2.52-0.71,4.3c-3.93-3.53-5.84-7.4-6.06-12.14c-0.21-4.56,1.57-8.61,3.55-13.04
		c-2.33-0.38-4.44-0.73-6.54-1.07c-9.29-1.48-18.43-3.49-27.14-7.16c-5.12-2.16-9.88-4.91-14.12-8.53
		c-0.67-0.57-1.37-1.12-2.09-1.62c-2.23-1.56-4.53-1.64-6.8-0.14c-1.1,0.73-2.22,1.48-3.16,2.39
		c-15.73,15.16-34.85,24.27-55.33,30.89c-15.29,4.94-30.98,8.08-46.99,9.4c-20.26,1.67-40.54,3.01-60.79,4.73
		c-15.63,1.32-31.22,2.99-46.83,4.54c-1.64,0.16-3.26,0.56-4.9,0.81c-6.11,0.94-10.99,3.8-14.28,9.15
		c-3.47,5.64-7.12,11.18-10.42,16.91c-4.57,7.94-8.78,16.1-13.36,24.04c-5.76,9.98-12.28,19.43-20.61,27.5
		c-7.49,7.26-16.02,12.82-26.06,15.87c-0.81,0.25-1.65,0.39-2.9,0.67c0.52-0.62,0.68-0.93,0.94-1.08
		c7.66-4.69,13.68-11.13,19.22-18.07c6.7-8.4,12.39-17.47,17.98-26.62c6.62-10.83,13.3-21.64,19.93-32.46
		c0.09-0.14,0.01-0.38,0.01-0.88c-0.64,0.42-1.18,0.7-1.62,1.08c-4.59,4.01-8.88,8.31-12.05,13.58
		c-4.91,8.13-9.65,16.37-14.77,24.37c-4.16,6.5-8.43,12.99-13.23,19.01c-8.22,10.3-18.95,17.44-30.9,22.82
		c-7.35,3.3-14.62,6.78-22.01,9.99c-8.87,3.85-15.54,9.96-19.9,18.59c-0.3,0.59-0.72,1.12-0.99,1.72
		c-4.76,10.6-12.49,18.93-20.58,26.99c-6.81,6.78-15.18,10.56-24.49,12.31c-7.92,1.49-15.83,1.33-23.58-1.2
		c-3.93-1.28-7.58-3.1-10.6-5.96c-1.43-1.35-2.8-2.88-3.78-4.57c-3.68-6.32-1.52-13.29,5.32-15.82c4.61-1.71,9.57-2.59,14.44-3.47
		c4.88-0.89,9.89-1.09,14.76-2.01c6.89-1.3,12.39-5.02,16.67-10.6c6.28-8.19,10.05-17.36,10.9-27.66c0.4-4.88,1.96-9.06,5.28-12.86
		c9.45-10.82,18.53-21.95,26.61-33.86c5.22-7.69,10.04-15.61,13.65-24.21c2.23-5.31,4.05-10.75,4.4-16.57
		c0.06-1.08,0.01-2.17,0.01-3.55c-0.96,0.14-1.7,0.13-2.36,0.37c-11.03,3.93-21.29,9.12-29.5,17.77
		c-6.92,7.3-13.85,14.58-20.97,21.68c-7.55,7.53-15.87,14.06-25.59,18.65c-10.07,4.76-20.59,6.54-31.6,4.55
		c-15.02-2.71-24.35-13.29-26.06-28.51c-2.79-24.87,5.7-45.53,22.81-63.14c0.77-0.79,1.55-1.57,2.31-2.37
		c0.12-0.13,0.14-0.36,0.35-0.95c-1.01,0.53-1.75,0.88-2.45,1.3c-36.44,21.96-70.63,46.97-102.02,75.74
		c-51.02,46.75-94.83,99.36-129.4,159.45c-15.91,27.65-29.2,56.48-38.53,87.05c-5.3,17.37-9.12,35.05-10.72,53.15
		c-2.03,23.04-0.34,45.68,7.69,67.59c4.52,12.35,10.99,23.59,19.32,33.78c2.42,2.96,5.36,5.25,8.52,7.29
		c8.57,5.53,18.06,8.71,28,10.66c16.08,3.16,32.27,3.27,48.51,1.6c43.49-4.47,83.83-18.72,122.1-39.39
		c11.83-7.93,23.92-15.52,35.44-23.87c32.88-23.82,62.9-50.8,89.06-81.95c8.89-10.59,17.19-21.62,24.66-33.26
		c0.46-0.72,0.85-1.48,1.64-2.85c-1.77,0.78-2.94,1.27-4.08,1.81c-24.12,11.23-48.16,22.6-72.37,33.63
		c-14.87,6.77-30.02,12.93-45.82,17.24c-5.62,1.53-11.43,2.42-17.2,3.28c-2.35,0.35-4.87,0.1-7.25-0.28
		c-5.46-0.86-8.68-4.57-8.43-10.11c0.13-2.91,0.86-5.9,1.88-8.65c2.08-5.65,5.56-10.53,9.28-15.22
		c9.61-12.12,20.99-22.4,33.22-31.76c19.75-15.14,40.98-27.67,64.55-35.97c11.84-4.17,23.98-6.96,36.61-6.84
		c8.03,0.07,15.72,1.69,23.12,5.02c10.23,4.61,12.26,12.73,11.45,21.31c-0.34,3.59-1.27,7.12-1.93,10.68
		c2.94-0.08,7.9-1.65,12.19-3.9c-0.13-0.47-0.3-0.97-0.41-1.49c-0.32-1.55,0.31-2.62,1.8-3.06c14.31-4.25,26.13-12.73,37.33-22.16
		c12.66-10.66,23.76-22.77,33.01-36.53c3.01-4.48,7.04-4.19,9.68,0.78c-2.7,3.96-5.54,7.89-8.13,12c-2.94,4.67-5.74,9.43-8.41,14.26
		c-1,1.81-1.6,3.87-2.14,5.89c-0.49,1.85,0.32,2.78,2.24,2.55c1.39-0.17,2.86-0.56,4.07-1.24c3.55-2.01,7.2-3.94,10.43-6.41
		c10.27-7.84,20.42-15.85,30.52-23.92c7.42-5.93,14.7-12.05,22.04-18.08c0.93-0.77,1.9-1.49,2.78-2.17c4.7,1.77,6.45,4.83,5.06,9.35
		c-0.77,2.51-2,4.9-3.26,7.22c-1.74,3.19-3.7,6.27-5.83,9.83c1.04-0.36,1.72-0.51,2.32-0.81c2.86-1.44,5.63-3.08,8.55-4.36
		c4.24-1.87,7.64-4.78,10.81-8.06c9.16-9.49,17.1-19.98,24.64-30.75c15.4-21.99,30.58-44.13,45.9-66.17
		c16.6-23.86,33.62-47.41,52.42-69.61c4.21-4.97,8.61-9.79,12.93-14.67c0.58-0.66,1.17-1.36,1.88-1.86c2.4-1.7,4.96-0.72,5.49,2.15
		c0.42,2.28,0.49,4.51-0.65,6.76c-19.39,38.04-40.52,75.03-66.26,109.21c-15.46,20.53-32.6,39.55-51.61,56.87
		c-1.3,1.19-2.54,2.47-3.69,3.8c-13.3,15.39-26.19,31.12-37.2,48.26c-4.2,6.54-8.02,13.34-12.01,20.02
		c0.15,0.19,0.31,0.38,0.46,0.57c1.47-0.86,3.03-1.61,4.41-2.6c9.79-7,19.74-13.81,29.29-21.13c31.59-24.21,62.02-49.82,91.93-76.05
		c1.39-1.22,2.6-2.71,3.61-4.26c20.38-31.29,40.72-62.61,62.38-93.03c12.76-17.92,25.76-35.67,40.74-51.82
		c5.47-5.9,11.48-11.31,17.46-16.71c3.44-3.11,7.43-5.55,11.78-7.29c11.31-4.53,17.75,1.36,18.54,11.75
		c0.28,3.64-0.58,7.48-1.53,11.06c-1.86,6.99-5.4,13.28-9.19,19.39c-8.3,13.39-18.29,25.47-28.77,37.18
		c-20.07,22.43-41.78,43.21-64.24,63.21c-15.1,13.45-30.56,26.49-45.81,39.76c-1.39,1.21-2.65,2.67-3.59,4.24
		c-34.52,57.08-69,114.19-103.48,171.29c-0.61,1.02-1.18,2.06-1.76,3.1C610.51,681.12,610.67,681.28,610.84,681.43z M342.62,911.66
		c3.74-2.94,6.92-5.28,9.93-7.82c12.69-10.74,23.87-22.97,34.64-35.58c20.17-23.64,38.65-48.58,56.61-73.9
		c39.7-55.96,76.9-113.59,114.21-171.14c0.32-0.5,0.55-1.06,0.82-1.59c-1.42,0.47-2.52,1.17-3.53,1.97
		c-12.14,9.58-24.51,18.89-36.35,28.82c-39.72,33.32-76.18,69.89-108.41,110.57c-17.52,22.12-33.5,45.28-46.39,70.46
		c-9.76,19.06-17.61,38.79-20.67,60.16C342.67,899.25,342.17,904.95,342.62,911.66z M302.38,650.89c7.78-0.72,15.3-2.52,22.73-4.64
		c36.68-10.42,71.9-24.84,107.15-39.16c0.77-0.31,1.6-0.89,2.01-1.58c3.36-5.72,6.59-11.5,7.97-18.1
		c1.45-6.94-1.27-11.66-8.12-13.13c-5.05-1.09-10.23-1.84-15.38-2.12c-13.93-0.76-27.16,2.6-40.01,7.64
		c-20.86,8.19-39.41,20.24-56.64,34.41c-8.71,7.17-17.01,14.79-24.03,23.67c-1.7,2.15-3.23,4.49-4.49,6.92
		c-1.43,2.75-0.46,4.71,2.6,5.4C298.17,650.67,300.3,650.68,302.38,650.89z M735.89,472.92c0.12,0.15,0.24,0.29,0.36,0.44
		c0.82-0.69,1.67-1.34,2.45-2.07c7.39-6.81,14.83-13.58,22.15-20.47c21.09-19.84,41.74-40.11,60.88-61.87
		c9.05-10.29,17.88-20.79,25.02-32.53c2.79-4.59,4.97-9.58,7.21-14.49c0.79-1.73,0.9-3.76,1.45-6.19c-3.77,0.96-6.56,2.45-9.27,4.09
		c-7.24,4.36-13.53,9.92-19.53,15.81c-11.93,11.71-22.55,24.58-32.84,37.72c-19.69,25.14-37.96,51.33-56.48,77.33
		C736.78,471.39,736.35,472.17,735.89,472.92z M843.91,453.27c-5.26,0.01-10.25,0.83-14.53,4.11c-1.1,0.85-2.03,2.02-2.78,3.2
		c-1.27,2.02-0.85,4.04,1,5.54c1.44,1.17,3.1,1.58,4.94,1.23C838.98,466.15,843.75,460.38,843.91,453.27z M676.73,461.38
		c0.17,0.18,0.35,0.35,0.52,0.53c0.5-0.57,1.01-1.12,1.49-1.7c6.41-7.72,12.93-15.35,19.2-23.18c6.55-8.18,12.59-16.74,17.54-26.02
		c1.22-2.29,2.3-4.67,3.44-7.01c-0.2-0.12-0.41-0.24-0.61-0.37C704.44,422.87,690.58,442.12,676.73,461.38z M1013.44,415.08
		c2.07-0.46,3.47-0.69,4.82-1.1c2.14-0.66,3.62-2.12,4.18-4.3c0.19-0.75,0.16-1.95-0.3-2.37c-0.49-0.45-1.8-0.55-2.4-0.2
		c-1.38,0.8-2.76,1.81-3.74,3.04C1014.99,411.41,1014.46,413.05,1013.44,415.08z"/>
	<path class="st0" d="M263.21,27.43c3.41,0.17,6.46,0.29,9.5,0.48c9.04,0.56,18.08,1.22,27.12,1.72c12.81,0.7,25.5,2.4,38.16,4.39
		c18.86,2.97,37.73,5.93,56.58,9.01c17.87,2.91,35.72,5.92,53.56,8.96c7.72,1.32,15.44,2.7,23.09,4.34
		c4.41,0.95,8.7,2.45,13.04,3.72c17.14,5.02,28.65,16.02,34.7,32.76c2.06,5.71,3.79,11.54,5.95,17.21
		c7.21,18.9,17.31,36.03,31.96,50.19c17.46,16.88,38.09,27.78,62.14,31.72c7.29,1.19,14.71,1.54,22.07,2.26
		c3.16,0.31,6.33,0.57,9.67,1.38c-0.81,0.39-1.6,0.86-2.44,1.15c-13.53,4.68-27.47,6.54-41.73,5.83
		c-17.56-0.86-34.2-5.21-49.72-13.61c-18.34-9.94-32.61-24.11-43.14-42.01c-6.84-11.62-12.99-23.58-17.47-36.36
		c-3.92-11.18-11.59-18.32-23.27-21.49c-27.15-7.37-54.24-14.98-81.71-21.16c-17.68-3.98-35.54-6.87-53.52-9.07
		c-13.7-1.68-27.43-3.18-41.06-5.31c-14.87-2.32-25.64-10.68-32.6-23.98C263.8,28.99,263.61,28.38,263.21,27.43z"/>
	<path class="st0" d="M778.64,211.72c-0.3-3.73-0.3-7.05-0.88-10.27c-1.12-6.24-4.24-11.56-8.31-16.36
		c-4.39-5.19-9.53-9.55-15.16-13.28c-6.63-4.39-13.43-8.52-20.17-12.73c-6.09-3.8-12.27-7.47-17.4-13.11
		c-1.28,2.49-2.46,4.78-3.8,7.39c-4.06-5.33-5.52-10.95-4.8-17.12c0.73-6.36,3.44-11.81,7.91-16.4
		c6.57-6.75,12.48-14.03,17.58-21.96c0.29-0.45,0.55-0.91,1.05-1.75c-9.91-1.51-19.56-2.01-29.18-2.86
		c-0.01-0.21-0.1-0.53-0.03-0.57c6.3-3.44,12.62-6.97,19.76-8.21c3.42-0.59,7.08-0.55,10.52-0.06c5.56,0.78,5.52,1.04,11.16-1.49
		c-2.26-2.64-4.88-4.47-8.03-5.45c-6.36-1.97-12.88-3.08-19.54-3.31c-15.88-0.53-30.6,3.8-44.47,11.12
		c-6.33,3.34-12.56,7-18.43,11.09c-11.18,7.78-23.56,10.2-36.81,9.17c-4.15-0.32-8.26-1.2-12.66-1.87c0.6,0.63,1.09,1.26,1.69,1.76
		c5.22,4.32,11.39,6.69,17.8,8.5c5.2,1.47,10.48,2.66,15.69,4.12c2.05,0.58,4.34,0.99,5.5,3.43c-6.37,4.89-7.59,11.93-8.05,19.21
		c-0.42,6.66,0.27,13.24,1.88,19.72c0.21,0.84,0.36,1.68,0.07,2.78c-1.16-1.81-2.38-3.59-3.48-5.43c-2.69-4.47-4.88-9.13-5.92-14.31
		c-1.15-5.71-0.21-10.97,2.97-15.83c0.24-0.37,0.46-0.75,0.68-1.13c0.05-0.09,0.06-0.21,0.15-0.52c-0.92-0.27-1.85-0.56-2.78-0.81
		c-7.07-1.88-13.9-4.38-20.23-8.09c-3.93-2.3-7.53-5.03-10.48-8.55c-2.38-2.84-4.13-6.01-4.96-9.63c-0.23-1.02-0.27-2.09-0.38-3.04
		c6.87,0.85,13.41,1.79,19.97,2.44c7.41,0.73,14.78,0.26,22.05-1.49c4.8-1.15,9.1-3.25,13-6.29c12.96-10.1,27.18-17.69,43.33-21.32
		c13.23-2.97,26.48-3.64,39.64,0.28c3.36,1,6.62,2.46,9.77,4.02c4.13,2.05,7.53,5.01,9.65,9.24c0.25,0.49,0.62,0.92,0.86,1.41
		c2.67,5.3,6.63,8.85,12.62,10.25c4.69,1.09,8.74,3.67,12.18,7.08c4.08,4.05,4.99,8.14,2.97,12.93c-0.12,0.29-0.4,0.52-0.7,0.9
		c-9.87-7.39-20.97-9.44-32.92-7.24c-6.08,1.12-10.98,4.01-13.88,7.88c1.24,2.48,3.17,4.36,5.58,5.82
		c5.41,3.26,11.29,5.11,17.56,5.38c5.72,0.25,11.47,0.05,17.79,0.05c-0.66,1.01-0.93,1.67-1.41,2.12c-3.84,3.56-8.23,5.75-13.59,6.1
		c-7.5,0.48-14.81-0.14-21.79-2.98c-2.83-1.15-5.47-2.77-8.49-4.33c-0.26,2.62,0.23,5.07,1.57,7.16c1.48,2.3,3.17,4.54,5.14,6.42
		c6.52,6.2,14.01,11.11,21.65,15.79c7.03,4.31,13.4,9.36,18.53,15.87c4.16,5.29,7.29,11.08,8.28,17.83
		c1.08,7.35-0.91,13.78-6.12,19.14C779.87,210.79,779.34,211.15,778.64,211.72z"/>
	<path class="st0" d="M258.4,75.62c5.12-0.87,10.25-1.27,15.42-0.68c19.19,2.19,38.39,4.3,57.56,6.63
		c18.4,2.23,36.81,4.63,54.89,8.77c30,6.87,54.53,22.75,74.29,46.19c5.27,6.24,10.07,12.82,14.04,20.16
		c-0.46-0.32-0.96-0.6-1.39-0.96c-24.88-20.72-53.5-33.98-84.54-42.42c-18.24-4.96-36.79-8.35-55.53-10.69
		c-14.56-1.82-29.15-3.5-43.71-5.3c-2.95-0.37-5.92-0.82-8.79-1.57c-10.57-2.77-17.5-9.83-22.25-19.33
		C258.33,76.24,258.4,75.99,258.4,75.62z"/>
	<path class="st0" d="M532.26,218.86c-8.98,1.45-17.97,1.55-26.97,0.85c-23.69-1.84-45.11-10.01-64.58-23.44
		c-7.54-5.2-15.1-10.41-22.3-16.07c-17.01-13.39-36.11-21.43-57.62-23.92c-11.39-1.32-21.54-5.81-30-13.55
		c-4.38-4.01-8.14-8.68-12.16-13.07c-0.35-0.38-0.55-0.89-1.05-1.73c2.68,0.26,4.95,0.43,7.21,0.71c15.23,1.86,30.4,4.13,45.31,7.87
		c21.94,5.5,42.58,13.9,60.81,27.54c4.86,3.63,9.48,7.59,13.98,11.67c12.16,11.01,25.01,21.03,39.55,28.76
		c14.09,7.49,29.03,12.26,44.91,14C530.32,218.57,531.29,218.72,532.26,218.86z"/>
	<path class="st0" d="M929.61,219.7c-0.38-0.66-0.74-1.33-1.13-1.97c-3.99-6.5-9.99-9.32-17.37-8.7
		c-8.99,0.75-16.73,4.61-23.23,10.86c-2.57,2.48-4.57,5.38-5.72,8.81c-1.48,4.43-1.24,8.69,1.37,12.68c0.35,0.53,0.65,1.09,1.25,2.1
		c-11.22-0.87-15.64-8.03-17.9-17.51c-1.32,0.63-2.43,1.09-3.48,1.66c-4.37,2.36-8.85,4.54-13.05,7.17
		c-9.52,5.94-19.9,9.5-30.86,11.33c-7.4,1.23-14.92,1.95-22.39,0.45c-1.89-0.38-3.84-1.16-5.43-2.24c-2.87-1.96-3.31-5.26-0.85-7.68
		c1.92-1.89,4.27-3.67,6.77-4.55c5.39-1.9,10.92-3.53,16.51-4.68c10.91-2.23,21.92-3.98,32.86-6.07c3.35-0.64,6.64-1.64,9.91-2.62
		c4.49-1.35,8.45-3.56,11.96-6.8c5.7-5.27,12.08-9.65,19.2-12.82c7.49-3.34,15.25-5.24,23.5-3.58c7.36,1.48,13.34,5.12,17.34,11.63
		c1.59,2.58,2.64,5.38,2.43,8.46c-0.09,1.36-0.56,2.7-0.85,4.05C930.16,219.67,929.89,219.69,929.61,219.7z"/>
	<path class="st0" d="M452.55,427.41c-0.01,0.28,0.06,0.63-0.06,0.89c-4.3,9.49-9.38,18.49-16.81,25.94
		c-5.57,5.59-11.96,9.8-19.99,10.77c-2.57,0.31-5.21,0-8.27-0.03c0.52-1.33,0.72-2.15,1.13-2.85c2.85-4.84,5.53-9.8,8.69-14.42
		c1.64-2.39,3.91-4.56,6.33-6.17c8.94-5.93,18.81-10.09,28.64-14.28C452.27,427.24,452.38,427.33,452.55,427.41z"/>
	<path class="st0" d="M602.63,486.75c0.8-9.79,15.33-20.37,29.79-16.67c-0.9,1.69-1.6,3.39-2.63,4.87c-2.11,3.05-5.06,5.19-8.25,7
		c-5.48,3.09-11.4,4.62-17.65,4.99C603.47,486.96,603.04,486.82,602.63,486.75z"/>
	<path class="st0" d="M872.67,277c16.68-8.02,32.64,2.98,31.86,22.18c-0.58-1.28-0.96-1.99-1.22-2.73
		c-1.85-5.3-5.46-8.68-10.91-10.08c-2.67-0.68-5.35-1.3-8.01-2.02c-3.89-1.05-7.4-2.84-10.33-5.65
		C873.61,278.26,873.26,277.72,872.67,277z"/>
	<path class="st0" d="M907.48,186.6c15.58-8.73,32.25,0.38,33.42,18.51c-0.57-0.8-0.96-1.2-1.16-1.67
		c-2.32-5.46-6.52-8.4-12.29-9.35c-3.37-0.55-6.74-1.13-10.05-1.94C913.73,191.25,910.39,189.6,907.48,186.6z"/>
	<path class="st0" d="M624.53,74.49c8.12,7.01,16.97,11.33,28.03,12.4c-1.87,1.44-3.1,2.75-4.61,3.43
		c-1.06,0.48-2.57,0.39-3.76,0.08c-5.65-1.48-11.08-3.52-16.27-7.15c0.33,4.91,2.82,8.3,5.51,11.55c-0.21,0.24-0.31,0.49-0.45,0.51
		c-6.14,0.96-6.85,0.56-8.61-5.38C622.9,84.96,622.8,79.97,624.53,74.49z"/>
</g>
</svg>
