<?xml version="1.0" encoding="utf-8"?>
<!-- Generator: Adobe Illustrator 26.5.0, SVG Export Plug-In . SVG Version: 6.00 Build 0)  -->
<svg version="1.1" id="Calque_1" xmlns="http://www.w3.org/2000/svg" xmlns:xlink="http://www.w3.org/1999/xlink" x="0px" y="0px"
	 viewBox="0 0 1049.2 688.34" style="enable-background:new 0 0 1049.2 688.34;" xml:space="preserve">
<style type="text/css">
	.st0{fill:#FFFFFF;}
</style>
<g>
	<g>
		<path class="st0" d="M442.76,339.74c-0.22-0.99-0.41-1.98-0.57-2.98c-9.04,3.51-18.08,6.99-27.05,10.38
			c4.67-12.73,4.44-22.99-2.03-29.49c-53.58-41.62-193.56,60.95-176.8,89.64c9.79,18.34,83.87-14.69,156.37-46.22
			c-1.07,1.56-2.15,3.13-3.25,4.7c-82.59,116.79-277.31,213.64-327.56,168.8C-81.29,371.15,430.72-108.29,550.22,53.04l1.39-3.9
			c-79.06-171.9-696.74,331.18-494.12,502.35c81.9,68.41,317.31-113.18,355.57-199.24C423.18,347.9,433.14,343.68,442.76,339.74z
			 M255.04,390.11c-4.51-8.7,80.16-85.32,139.45-69.94c19.32,2.48,13.82,16.77,3.07,33.56
			C323.83,381.06,259.56,400.98,255.04,390.11z"/>
	</g>
	<g>
		<path class="st0" d="M1025.29,169.62c-8.39,2.17-16.79,4.36-25.54,4.51c-5.75,0.1-11.42-0.29-17.38-2.68
			c1.97-0.38,3.39-0.62,4.8-0.93c6.99-1.53,13.17-4.57,18.06-9.9c2.47-2.7,4.33-5.74,4.87-9.46c0.59-4.12-1.06-7.33-4.88-9.04
			c-5.63-2.53-11.24-2.52-16.38,1.08c-2.84,1.98-5.36,4.45-7.85,6.88c-2.82,2.75-5.39,5.75-8.17,8.54
			c-3.04,3.05-6.5,5.52-10.49,7.25c-2.68,1.16-5.18,1.11-7.76-0.25c-1.78-0.94-3.64-1.82-5.55-2.43c-4.93-1.57-9.56-0.19-14.06,1.81
			c-1.49,0.66-2.94,1.39-4.2,1.99c-1.59-3.26-2.77-6.33-4.5-9.06c-2.34-3.7-5.67-4.39-9.29-1.93c-2.39,1.63-4.58,3.67-6.5,5.84
			c-3.13,3.54-5.91,7.39-8.95,11c-2.68,3.18-5.44,6.31-8.32,9.31c-2.42,2.51-5.46,4.07-9.01,4.08c-3.58,0.01-7.21-0.01-10.73-0.56
			c-6.74-1.06-13.23-0.86-19.45,2.22c-0.45,0.22-0.99,0.25-1.83,0.45c0-1.18,0.12-2.08-0.02-2.94c-0.39-2.32-0.62-4.72-1.42-6.9
			c-1.29-3.52-4.18-5.07-7.83-4.15c-2.47,0.62-4.87,1.7-7.15,2.88c-2.17,1.12-4.13,2.64-6.29,4.05c-0.93-1.22-1.7-2.47-2.7-3.49
			c-3.57-3.64-8.09-4.09-12.84-3.62c-6.01,0.59-11.21,3.04-15.97,6.68c-9.15,7-17.42,14.97-25.45,23.19
			c-6.45,6.6-12.53,13.58-19.2,19.96c-17.52,16.73-34.7,33.78-51.27,51.44c-45.1,48.05-86.04,99.46-123.93,153.33
			c-0.77,1.09-1.56,2.17-2.33,3.25c-0.17-0.16-0.33-0.32-0.5-0.48c0.6-1.05,1.17-2.12,1.8-3.16
			c35.14-58.21,70.29-116.41,105.47-174.59c0.97-1.6,2.25-3.1,3.66-4.33c15.55-13.53,31.31-26.82,46.69-40.53
			c22.88-20.39,45.01-41.57,65.47-64.43c10.68-11.93,20.86-24.25,29.32-37.89c3.87-6.23,7.47-12.64,9.37-19.77
			c0.97-3.65,1.85-7.57,1.56-11.28c-0.8-10.59-7.37-16.6-18.9-11.98c-4.44,1.78-8.5,4.26-12.01,7.43
			c-6.09,5.5-12.22,11.02-17.8,17.03c-15.27,16.46-28.52,34.56-41.53,52.82c-22.08,31.01-42.81,62.93-63.58,94.83
			c-1.03,1.58-2.27,3.1-3.68,4.34c-30.49,26.74-61.51,52.84-93.7,77.52c-9.73,7.46-19.87,14.4-29.85,21.54
			c-1.41,1.01-2.99,1.77-4.5,2.65c-0.16-0.19-0.32-0.38-0.47-0.58c4.07-6.81,7.96-13.73,12.24-20.4
			c11.22-17.48,24.36-33.51,37.92-49.19c1.17-1.36,2.43-2.66,3.76-3.87c19.38-17.65,36.84-37.03,52.6-57.96
			c26.24-34.85,47.78-72.54,67.54-111.32c1.17-2.3,1.1-4.57,0.67-6.89c-0.54-2.94-3.15-3.93-5.6-2.2c-0.72,0.51-1.32,1.23-1.91,1.9
			c-4.41,4.97-8.89,9.88-13.18,14.96c-19.16,22.63-36.51,46.63-53.43,70.96c-15.62,22.46-31.09,45.04-46.79,67.45
			c-7.69,10.98-15.78,21.67-25.12,31.35c-3.23,3.34-6.69,6.31-11.02,8.22c-2.98,1.31-5.8,2.98-8.72,4.45
			c-0.61,0.31-1.3,0.46-2.36,0.83c2.17-3.63,4.17-6.76,5.95-10.02c1.29-2.36,2.54-4.8,3.33-7.36c1.42-4.61-0.36-7.73-5.16-9.53
			c-0.89,0.7-1.88,1.43-2.83,2.21c-7.49,6.14-14.9,12.38-22.47,18.43c-10.29,8.22-20.64,16.38-31.1,24.38
			c-3.29,2.51-7.01,4.48-10.63,6.53c-1.23,0.7-2.73,1.1-4.15,1.27c-1.96,0.23-2.78-0.71-2.28-2.6c0.55-2.05,1.16-4.16,2.18-6
			c2.72-4.92,5.57-9.77,8.57-14.53c2.64-4.18,5.54-8.2,8.29-12.23c-2.69-5.06-6.8-5.36-9.87-0.79
			c-9.43,14.03-20.74,26.37-33.64,37.23c-10.39,8.75-21.31,16.68-34.18,21.3c-0.47,3.12-1,6.23-1.6,9.33
			c0.61-0.13,1.24-0.18,1.74-0.01c3.07,1.06,5.87,0.24,8.43-1.2c3.13-1.76,6.2-3.7,9.01-5.92c6.36-5.03,12.53-10.29,18.81-15.43
			c1.91-1.56,3.89-3.03,5.89-4.58c1.44,2.57,2.74,4.93,4.09,7.27c1.12,1.94,2.9,2.77,5.07,2.77c1.12,0,2.25-0.11,3.35-0.29
			c6.33-1.03,11.98-3.82,17.5-6.87c12.17-6.72,23.26-15,34.08-23.68c0.93-0.75,1.9-1.44,3.33-2.51c0,1.66-0.05,2.74,0.01,3.81
			c0.11,1.91,0.15,3.83,0.49,5.7c0.49,2.73,1.67,3.78,4.43,3.53c2.32-0.22,4.76-0.65,6.83-1.64c5.17-2.46,10.16-5.29,15.21-7.99
			c0.84-0.45,1.65-0.95,3-1.74c-0.53,1.51-0.73,2.5-1.19,3.35c-3.05,5.64-5.89,11.41-9.3,16.83c-7.82,12.42-17.25,23.64-27.02,34.56
			c-1.34,1.5-2.86,2.89-4.48,4.07c-36.87,26.83-71.51,56.25-103.51,88.74c-24.94,25.32-48.05,52.2-68.78,81.08
			c-18.22,25.4-34.56,51.92-47.3,80.53c-6.61,14.84-12.27,30.01-14.87,46.14c-0.92,5.68-1.46,11.39-0.39,17.14
			c0.57,3.03,1.07,3.88,4.09,3.82c2.63-0.05,5.5-0.43,7.82-1.56c4.02-1.96,7.89-4.34,11.47-7.03c8.13-6.11,15.13-13.47,21.95-20.98
			c15.77-17.37,30.06-35.93,43.99-54.77c29.2-39.49,56.66-80.19,83.93-121.02c24.26-36.33,48.39-72.75,72.63-109.1
			c1.03-1.55,2.41-2.99,3.91-4.09c25.42-18.66,50.89-37.24,76.32-55.88c14.35-10.52,28.64-21.11,42.97-31.65
			c0.2-0.15,0.52-0.14,1.24-0.32c-0.93,1.52-1.61,2.65-2.31,3.78c-21.8,35.1-43.71,70.14-65.37,105.32
			c-15.52,25.21-30.75,50.61-44.25,76.99c-4.21,8.22-8.23,16.53-10.74,25.47c-0.54,1.92-0.85,3.98-0.85,5.97
			c0,2.24,1.35,3.47,3.53,3.84c3.68,0.61,6.78-0.84,8.68-4.07c23.98-40.68,49.89-80.08,78.45-117.71
			c33.93-44.69,71.18-86.37,112.89-123.99c9.7-8.75,19.86-16.99,28.82-26.54c2.31-2.46,4.88-4.67,7.36-6.96
			c0.78-0.72,1.67-1.33,2.86-2.26c0.28,1.42,0.41,2.28,0.63,3.12c0.7,2.71,1.21,5.5,2.2,8.11c1.24,3.28,3.71,5.1,7.35,5.63
			c5.48,0.8,10.42-0.47,14.59-3.84c3.74-3.02,7.23-6.45,10.43-10.04c4.64-5.21,8.93-10.73,13.38-16.11
			c0.74-0.89,1.56-1.72,2.81-3.08c0,2.27-0.06,3.71,0.02,5.14c0.08,1.45,0.14,2.93,0.46,4.35c0.83,3.67,2.56,4.98,6.28,4.47
			c2.09-0.28,4.16-0.98,6.13-1.76c4.39-1.73,8.74-3.6,13.07-5.47c2.37-1.02,4.76-1.14,7.26-0.64c3.31,0.66,6.71,0.98,9.95,1.88
			c8.76,2.44,15.61-0.36,21.36-7.04c4.11-4.78,8.44-9.37,12.69-14.03c0.57-0.63,1.24-1.16,1.97-1.82c0.71,2.19,1.18,4.15,1.97,5.98
			c1.74,4.02,4.33,5.21,8.43,3.6c2.59-1.02,4.98-2.57,7.42-3.95c3.52-2,6.9-4.27,10.53-6.04c5.21-2.54,10.75-3.09,16.46-1.76
			c2.13,0.49,3.45,1.34,4.15,3.68c1.77,5.93,5.9,9.52,12.11,10.27c2.43,0.3,4.96,0.19,7.4-0.13c7.32-0.98,14.16-3.61,20.84-6.61
			c9.44-4.24,18.79-8.68,28.18-13.04c0.29-0.13,0.52-0.4,0.78-0.6C1029.82,168.42,1027.56,169.03,1025.29,169.62z M988.71,155.5
			c1-1.26,2.41-2.28,3.81-3.1c0.61-0.36,1.95-0.25,2.44,0.2c0.47,0.43,0.5,1.65,0.3,2.42c-0.57,2.22-2.07,3.71-4.26,4.38
			c-1.37,0.42-2.8,0.65-4.91,1.12C987.15,158.45,987.69,156.78,988.71,155.5z M704.64,217.19c18.88-26.5,37.5-53.19,57.57-78.82
			c10.49-13.39,21.31-26.51,33.47-38.45c6.12-6.01,12.52-11.67,19.9-16.12c2.77-1.67,5.61-3.19,9.45-4.17
			c-0.56,2.48-0.68,4.55-1.48,6.31c-2.28,5-4.5,10.09-7.34,14.77c-7.28,11.97-16.27,22.67-25.5,33.16
			c-19.51,22.17-40.56,42.84-62.05,63.06c-7.46,7.02-15.04,13.92-22.58,20.86c-0.8,0.74-1.66,1.41-2.5,2.11
			c-0.12-0.15-0.25-0.3-0.37-0.44C703.68,218.71,704.12,217.92,704.64,217.19z M685.28,148.84c0.21,0.12,0.42,0.25,0.63,0.37
			c-1.16,2.38-2.26,4.8-3.5,7.14c-5.04,9.45-11.2,18.18-17.88,26.52c-6.39,7.98-13.03,15.76-19.57,23.63
			c-0.49,0.59-1.01,1.16-1.52,1.74c-0.18-0.18-0.35-0.36-0.53-0.54C657.03,188.08,671.15,168.46,685.28,148.84z M521.9,372.66
			c-38.03,58.66-75.95,117.4-116.41,174.44c-18.31,25.81-37.14,51.23-57.7,75.33c-10.97,12.86-22.37,25.32-35.31,36.27
			c-3.06,2.59-6.3,4.98-10.12,7.97c-0.46-6.84,0.05-12.64,0.87-18.42c3.11-21.78,11.12-41.89,21.07-61.32
			c13.14-25.66,29.42-49.27,47.29-71.81c32.85-41.46,70.01-78.74,110.5-112.7c12.07-10.12,24.68-19.61,37.05-29.38
			c1.03-0.82,2.15-1.53,3.6-2.01C522.46,371.57,522.23,372.15,521.9,372.66z M801.72,213.81c-1.88,0.35-3.57-0.06-5.03-1.26
			c-1.88-1.53-2.31-3.6-1.02-5.65c0.76-1.21,1.71-2.4,2.83-3.27c4.36-3.35,9.45-4.18,14.81-4.19
			C813.14,206.69,808.29,212.57,801.72,213.81z"/>
		<path class="st0" d="M567.38,233.57c0.81-9.98,15.63-20.76,30.37-16.99c-0.91,1.72-1.63,3.45-2.68,4.96
			c-2.15,3.11-5.16,5.29-8.41,7.13c-5.58,3.15-11.62,4.71-17.99,5.08C568.24,233.78,567.8,233.64,567.38,233.57z"/>
	</g>
</g>
</svg>
